<svg width="44" height="41" viewBox="0 0 44 41" fill="none" xmlns="http://www.w3.org/2000/svg">
<path d="M0 22.4174C0 22.9123 0.164968 23.3156 0.513235 23.6455C0.861502 23.9754 1.30142 24.1221 1.83298 24.1221H4.93073C5.42563 24.1221 5.84722 23.9571 6.19548 23.6272C6.54375 23.2972 6.72705 22.894 6.72705 22.4174C6.72705 21.8858 6.56208 21.4459 6.21381 21.116C5.86555 20.786 5.44396 20.6027 4.94906 20.6027H1.83298C1.30142 20.6027 0.861502 20.7677 0.513235 21.116C0.164968 21.4276 0 21.8675 0 22.4174ZM3.24438 33.7452C3.24438 35.5232 3.88593 37.0629 5.18734 38.3643C6.48876 39.6658 8.01014 40.3073 9.78813 40.3073H22.3624C24.1404 40.3073 25.6618 39.6658 26.9265 38.3827C28.1913 37.0996 28.8328 35.5599 28.8328 33.7452C28.8328 32.8654 28.7045 32.1139 28.4479 31.4907C29.9693 30.5192 31.1791 29.2178 32.0589 27.6047C32.9387 25.9917 33.397 24.2504 33.397 22.3991C33.397 20.9143 33.1037 19.4846 32.5171 18.1282C31.9306 16.7718 31.1424 15.5987 30.1709 14.6272C29.1994 13.6557 28.0263 12.8675 26.6699 12.281C25.3135 11.6944 23.9021 11.4012 22.4174 11.4012C20.4194 11.4012 18.5681 11.8961 16.8818 12.8859C15.1954 13.8757 13.8574 15.2138 12.8859 16.8818C11.9144 18.5681 11.4378 20.4011 11.4378 22.3991V23.0223C9.60483 24.0671 8.39507 25.5885 7.80851 27.5864C6.41544 28.0263 5.31565 28.7962 4.49081 29.9143C3.66597 31.0324 3.24438 32.3155 3.24438 33.7452ZM6.10384 7.79018C6.10384 8.30342 6.2688 8.725 6.58041 9.01828L9.53151 12.116C10.393 12.7759 11.2545 12.7759 12.116 12.116C12.4643 11.7678 12.6293 11.3462 12.6293 10.8329C12.6293 10.338 12.4643 9.91644 12.116 9.54984L9.0916 6.52542C8.70667 6.17716 8.26676 5.99386 7.80851 5.99386C7.29528 5.99386 6.87369 6.15882 6.56208 6.50709C6.25047 6.85536 6.10384 7.27694 6.10384 7.79018ZM6.87369 33.7452C6.87369 32.9754 7.11198 32.3155 7.60688 31.7656C8.10179 31.2157 8.725 30.9041 9.47653 30.8308L10.613 30.6841C10.8513 30.6841 10.9796 30.5375 10.9796 30.2626L11.1445 29.2361C11.2728 28.173 11.7128 27.2931 12.4826 26.5966C13.2525 25.8817 14.1506 25.5335 15.1954 25.5335C16.2586 25.5335 17.1934 25.8817 17.9632 26.5966C18.7514 27.3115 19.2097 28.1913 19.338 29.2361L19.4846 30.4275C19.5946 30.7025 19.7412 30.8491 19.9245 30.8491H22.3441C23.1323 30.8491 23.8105 31.1424 24.397 31.7106C24.9836 32.2788 25.2585 32.957 25.2585 33.7636C25.2585 34.5884 24.9652 35.2849 24.397 35.8715C23.8288 36.458 23.1323 36.7513 22.3441 36.7513H9.78813C8.96329 36.7513 8.26676 36.458 7.71686 35.8715C7.14864 35.2849 6.87369 34.5701 6.87369 33.7452ZM14.9755 22.0325C15.1038 20.0345 15.8736 18.3482 17.3034 16.9734C18.7148 15.617 20.4378 14.9205 22.4174 14.9205C24.452 14.9205 26.1933 15.6537 27.6231 17.1017C29.0528 18.5498 29.7677 20.3278 29.7677 22.3991C29.7677 23.6821 29.456 24.8736 28.8328 25.9734C28.2096 27.0732 27.3664 27.953 26.3033 28.6312C25.2219 27.733 23.9754 27.2931 22.5824 27.2931C22.0508 25.6801 21.0976 24.4153 19.7596 23.4622C18.4215 22.509 16.9001 22.0325 15.2138 22.0325H14.9755ZM20.6394 5.99386C20.6394 6.48876 20.8227 6.92868 21.171 7.27694C21.5192 7.62521 21.9408 7.80851 22.4357 7.80851C22.949 7.80851 23.3705 7.62521 23.7188 7.27694C24.0671 6.92868 24.2504 6.50709 24.2504 5.99386V1.70467C24.2504 1.2281 24.0671 0.824843 23.7188 0.494906C23.3705 0.164968 22.949 0 22.4357 0C21.9408 0 21.5192 0.164968 21.171 0.494906C20.8227 0.824843 20.6394 1.2281 20.6394 1.70467V5.99386ZM32.2239 33.9102C32.2239 34.4051 32.3888 34.8267 32.7188 35.1933L35.7249 38.1627C36.4947 38.9326 37.3562 38.9326 38.3094 38.1627C38.6393 37.8511 38.7859 37.4479 38.7859 36.9163C38.7859 36.4214 38.621 36.0181 38.3094 35.6882L35.2116 32.6271C34.8817 32.3155 34.4601 32.1689 33.9652 32.1689C33.452 32.1689 33.0487 32.3338 32.7188 32.6638C32.3888 32.9937 32.2239 33.4153 32.2239 33.9102ZM32.2239 10.7963C32.2239 11.3095 32.3888 11.7494 32.7188 12.116C33.0487 12.446 33.4703 12.6109 33.9652 12.6109C34.4601 12.6109 34.8817 12.446 35.2116 12.116L38.3094 9.01828C38.6393 8.70667 38.7859 8.30342 38.7859 7.79018C38.7859 7.27694 38.6026 6.85536 38.2544 6.52542C37.9061 6.19548 37.4845 6.01219 36.9713 6.01219C36.4947 6.01219 36.0731 6.19548 35.7249 6.54375L32.7188 9.53151C32.3888 9.86145 32.2239 10.283 32.2239 10.7963ZM36.9529 22.4174C36.9529 22.9123 37.1179 23.3156 37.4662 23.6455C37.8145 23.9754 38.2544 24.1221 38.7859 24.1221H41.8837C42.3786 24.1221 42.8002 23.9571 43.1484 23.6272C43.4967 23.2972 43.68 22.894 43.68 22.4174C43.68 21.8858 43.515 21.4459 43.1668 21.116C42.8185 20.786 42.3969 20.6027 41.902 20.6027H38.8043C38.2727 20.6027 37.8328 20.7677 37.4845 21.116C37.1362 21.4276 36.9529 21.8675 36.9529 22.4174Z" fill="black"/>
</svg>
