<svg width="44" height="44" viewBox="0 0 44 44" fill="none" xmlns="http://www.w3.org/2000/svg">
<path d="M0 21.84C0 21.3464 0.16452 20.9146 0.514124 20.565C0.863729 20.2359 1.29559 20.0714 1.74802 20.0714H5.94328C6.41627 20.0714 6.80701 20.2359 7.13605 20.5855C7.44452 20.9351 7.60904 21.3464 7.60904 21.84C7.60904 22.3336 7.46508 22.7449 7.15661 23.0945C6.84814 23.4441 6.43684 23.6086 5.96384 23.6086H1.76859C1.29559 23.6086 0.884294 23.4441 0.53469 23.0945C0.185085 22.7449 0 22.3336 0 21.84ZM5.88158 36.0915C5.88158 35.6185 6.0461 35.2072 6.35458 34.8371L9.37763 31.8963C9.6861 31.5672 10.0974 31.4233 10.591 31.4233C11.0845 31.4233 11.4958 31.5878 11.8249 31.8963C12.1539 32.2047 12.3184 32.5955 12.3184 33.0685C12.3184 33.562 12.1539 34.0145 11.8249 34.3846L8.90463 37.3049C8.06147 37.9629 7.2183 37.9629 6.37514 37.3049C6.0461 36.9758 5.88158 36.5645 5.88158 36.0915ZM5.88158 7.6296C5.88158 7.15661 6.0461 6.74531 6.35458 6.37514C6.76588 6.02554 7.19774 5.86102 7.67074 5.86102C8.12316 5.86102 8.53446 6.02554 8.88407 6.35458L11.8249 9.37763C12.1539 9.6861 12.3184 10.0974 12.3184 10.591C12.3184 11.0845 12.1539 11.4958 11.8249 11.8249C11.4958 12.1539 11.0845 12.3184 10.591 12.3184C10.0974 12.3184 9.6861 12.1539 9.37763 11.8249L6.37514 8.88407C6.0461 8.55503 5.88158 8.12316 5.88158 7.6296ZM11.1256 21.84C11.1256 19.9275 11.5986 18.1383 12.5652 16.4931C13.5318 14.8479 14.8273 13.5318 16.4931 12.5652C18.1589 11.5986 19.9275 11.1256 21.84 11.1256C23.2795 11.1256 24.6574 11.4136 25.9941 11.9894C27.3103 12.5652 28.4619 13.3261 29.4079 14.2927C30.3745 15.2592 31.1354 16.3903 31.6906 17.7064C32.2459 19.0226 32.5338 20.421 32.5338 21.8606C32.5338 23.7937 32.0608 25.5828 31.0942 27.228C30.1277 28.8732 28.8321 30.1688 27.1869 31.1354C25.5417 32.1019 23.7525 32.5749 21.8194 32.5749C19.8863 32.5749 18.0972 32.1019 16.452 31.1354C14.8068 30.1688 13.5112 28.8732 12.5446 27.228C11.6192 25.5623 11.1256 23.7731 11.1256 21.84ZM14.6217 21.84C14.6217 23.8554 15.3209 25.5623 16.7399 26.9812C18.1383 28.4002 19.8452 29.12 21.8606 29.12C23.8759 29.12 25.5828 28.4002 27.0018 26.9812C28.4208 25.5623 29.1406 23.8554 29.1406 21.84C29.1406 19.8658 28.4208 18.1794 27.0018 16.7605C25.5828 15.362 23.8759 14.6628 21.8606 14.6628C19.8658 14.6628 18.1589 15.362 16.7605 16.7605C15.3209 18.1794 14.6217 19.8658 14.6217 21.84ZM20.092 37.8395C20.092 37.346 20.2565 36.9347 20.6061 36.6056C20.9557 36.2766 21.367 36.1121 21.84 36.1121C22.3336 36.1121 22.7654 36.2766 23.0945 36.6056C23.4235 36.9347 23.588 37.346 23.588 37.8395V41.932C23.588 42.4255 23.4235 42.8574 23.0739 43.207C22.7243 43.5566 22.313 43.7211 21.84 43.7211C21.367 43.7211 20.9351 43.5566 20.6061 43.207C20.2565 42.8574 20.092 42.4255 20.092 41.932V37.8395ZM20.092 5.96384V1.76859C20.092 1.29559 20.2565 0.884294 20.6061 0.53469C20.9557 0.185085 21.367 0 21.8606 0C22.3541 0 22.7449 0.16452 23.0945 0.514124C23.4441 0.863729 23.6086 1.27503 23.6086 1.74802V5.96384C23.6086 6.43684 23.4441 6.82757 23.0945 7.15661C22.7449 7.48565 22.3336 7.6296 21.8606 7.6296C21.3876 7.6296 20.9557 7.46508 20.6267 7.15661C20.2976 6.84814 20.092 6.43684 20.092 5.96384ZM31.4438 33.0685C31.4438 32.5955 31.6084 32.2047 31.9168 31.9168C32.2253 31.5878 32.616 31.4438 33.0685 31.4438C33.562 31.4438 33.9733 31.6084 34.3024 31.9168L37.3049 34.8576C37.6339 35.2072 37.7984 35.6391 37.7984 36.1121C37.7984 36.5851 37.6339 36.9964 37.3049 37.3254C36.4823 37.9629 35.6597 37.9629 34.8371 37.3254L31.9168 34.4052C31.6084 34.035 31.4438 33.6032 31.4438 33.0685ZM31.4438 10.6115C31.4438 10.0974 31.6084 9.6861 31.9168 9.39819L34.8371 6.37514C35.1867 6.0461 35.598 5.88158 36.0504 5.88158C36.544 5.88158 36.9553 6.0461 37.2843 6.39571C37.6339 6.74531 37.7984 7.15661 37.7984 7.6296C37.7984 8.14373 37.6339 8.57559 37.3049 8.90463L34.3024 11.8454C33.9322 12.1745 33.5209 12.339 33.0685 12.339C32.5955 12.339 32.2253 12.1745 31.9168 11.8454C31.6084 11.5164 31.4438 11.1051 31.4438 10.6115ZM36.0915 21.84C36.0915 21.3464 36.256 20.9351 36.5851 20.565C36.9141 20.2359 37.3049 20.0714 37.7573 20.0714H41.9114C42.3844 20.0714 42.7957 20.2565 43.1453 20.6061C43.4949 20.9557 43.68 21.367 43.68 21.84C43.68 22.313 43.4949 22.7243 43.1453 23.0739C42.7957 23.4235 42.3844 23.588 41.9114 23.588H37.7573C37.2843 23.588 36.873 23.4235 36.5645 23.0739C36.256 22.7243 36.0915 22.3336 36.0915 21.84Z" fill="black"/>
</svg>
