<svg width="44" height="44" viewBox="0 0 44 44" fill="none" xmlns="http://www.w3.org/2000/svg">
<path d="M0 19.9884C0 22.3239 0.694335 24.4069 2.08301 26.2375C3.47168 28.068 5.28116 29.3304 7.51144 30.0037L6.12277 33.5385C6.05965 33.8331 6.16486 34.0014 6.41734 34.0014H10.899L8.83699 43.0488H9.42613L17.674 30.9505C17.7582 30.8664 17.7582 30.7612 17.695 30.656C17.6319 30.5508 17.5267 30.5087 17.3794 30.5087H12.7926L18.0106 20.7459C18.1579 20.4513 18.0527 20.283 17.7161 20.283H11.5302C11.3408 20.283 11.1725 20.3882 11.0462 20.5986L8.79491 26.6372C7.30104 26.2585 6.05965 25.4379 5.07075 24.1965C4.08185 22.9551 3.59792 21.5454 3.59792 19.9674C3.59792 18.221 4.18705 16.7061 5.38636 15.4016C6.58566 14.1182 8.0585 13.3607 9.80486 13.1503L10.92 13.003C11.1935 13.003 11.3408 12.8768 11.3408 12.6243L11.4881 11.5512C11.7195 9.27884 12.6664 7.36416 14.3706 5.82821C16.0749 4.29226 18.0738 3.51376 20.3672 3.51376C22.6606 3.51376 24.6594 4.29226 26.3637 5.82821C28.089 7.36416 29.0569 9.27884 29.3094 11.5512L29.4566 12.7716C29.4566 13.003 29.5829 13.1292 29.8354 13.1292H33.2019C35.1165 13.1292 36.7366 13.8025 38.0832 15.1281C39.4298 16.4536 40.1242 18.0738 40.1242 19.9253C40.1242 21.7138 39.493 23.2708 38.2516 24.5753C37.0102 25.8798 35.4532 26.6162 33.6227 26.7635C33.3491 26.7635 33.2019 26.8897 33.2019 27.1422V30.0247C33.2019 30.2562 33.3491 30.3824 33.6227 30.3824C36.421 30.2983 38.7986 29.2252 40.7554 27.2053C42.7121 25.1854 43.68 22.7658 43.68 19.9464C43.68 18.0527 43.2171 16.3064 42.2703 14.7073C41.3445 13.1082 40.061 11.8458 38.462 10.92C36.8418 9.99422 35.0955 9.53133 33.2019 9.53133H32.5496C31.8553 6.73295 30.3614 4.43954 28.1101 2.67214C25.8587 0.904741 23.2708 0 20.3672 0C17.4005 0 14.7494 0.925781 12.456 2.7563C10.1625 4.58682 8.68971 6.94335 8.03746 9.8259C5.70196 10.3729 3.78728 11.5723 2.27237 13.4659C0.757456 15.3595 0 17.5688 0 19.9884ZM17.1269 40.4187C17.1269 41.2393 17.5267 41.7864 18.3473 42.0388C18.3683 42.0388 18.4525 42.0388 18.5787 42.0599C18.705 42.0809 18.8102 42.0809 18.8733 42.0809C19.231 42.0809 19.5676 41.9757 19.9043 41.7653C20.2409 41.5549 20.4724 41.2183 20.5776 40.7554L25.3117 22.4712C25.4379 21.9662 25.3958 21.5244 25.1644 21.1036C24.9329 20.7038 24.5963 20.4303 24.1124 20.283C23.7547 20.2409 23.5653 20.2199 23.5653 20.2199C23.2287 20.2199 22.892 20.3251 22.5764 20.5355C22.2608 20.7459 22.0294 21.0615 21.9242 21.4823L17.169 39.8296C17.148 40.04 17.1269 40.2294 17.1269 40.4187ZM25.8798 33.9803C25.8798 34.2539 25.9429 34.5274 26.0902 34.7799C26.3847 35.2428 26.7424 35.5584 27.1632 35.7057C27.3947 35.7688 27.6051 35.8109 27.7945 35.8109C27.9838 35.8109 28.2153 35.7688 28.4677 35.6425C28.9096 35.4532 29.2042 35.0534 29.3514 34.4432L32.3813 22.5133C32.4444 22.2187 32.4865 22.0294 32.4865 21.9452C32.4865 21.6296 32.3813 21.314 32.1498 20.9984C31.9184 20.6828 31.6028 20.4513 31.182 20.3251C30.8243 20.283 30.6349 20.262 30.6349 20.262C30.2772 20.262 29.9406 20.3672 29.646 20.5776C29.3514 20.788 29.141 21.1036 29.0148 21.5244L25.9429 33.5175C25.9429 33.5595 25.9429 33.6227 25.9219 33.7489C25.8798 33.8541 25.8798 33.9172 25.8798 33.9803Z" fill="black"/>
</svg>
