<svg width="44" height="43" viewBox="0 0 44 43" fill="none" xmlns="http://www.w3.org/2000/svg">
<path d="M0 19.9427C0 22.2827 0.695675 24.3697 2.08703 26.2038C3.47838 28.0378 5.27027 29.3027 7.48378 29.9773L6.11351 33.5189C6.05027 33.8141 6.15568 33.9827 6.40865 33.9827H10.8989L8.70649 41.9514H9.29676L17.6659 30.947C17.7503 30.8627 17.7503 30.7573 17.7081 30.6519C17.6659 30.5465 17.5605 30.5043 17.413 30.5043H12.8173L18.0454 20.7227C18.1719 20.4276 18.0876 20.28 17.7503 20.28H11.5524C11.3627 20.28 11.1941 20.3854 11.0886 20.5751L8.79081 26.6254C7.29405 26.2459 6.05027 25.4238 5.05946 24.18C4.06865 22.9362 3.58378 21.5238 3.58378 19.9427C3.58378 18.193 4.17405 16.6751 5.35459 15.3892C6.53513 14.1032 8.01081 13.3654 9.78162 13.1546L10.8778 13.007C11.1519 13.007 11.2995 12.8805 11.2995 12.6486L11.447 11.5524C11.6578 9.27568 12.6065 7.3573 14.3141 5.81838C16.0216 4.27946 18.0243 3.49946 20.3222 3.49946C22.62 3.49946 24.6227 4.27946 26.3303 5.81838C28.0589 7.3573 29.0286 9.27568 29.2816 11.5524L29.4081 12.7751C29.4081 13.0281 29.5346 13.1546 29.8086 13.1546H33.2027C35.1211 13.1546 36.7443 13.8292 38.0935 15.1573C39.4427 16.4854 40.1173 18.0876 40.1173 19.9638C40.1173 21.7557 39.4849 23.3157 38.2411 24.6227C36.9973 25.9297 35.4584 26.6465 33.6243 26.7941C33.3503 26.7941 33.2027 26.9205 33.2027 27.1946V30.0827C33.2027 30.3146 33.3503 30.4411 33.6243 30.4411C34.9946 30.3989 36.3016 30.0827 37.5454 29.5135C38.7892 28.9443 39.8643 28.1854 40.7497 27.2578C41.6351 26.3303 42.3519 25.2341 42.8789 23.9481C43.4059 22.6832 43.68 21.3551 43.68 19.9849C43.68 18.0876 43.2162 16.3378 42.2676 14.7357C41.3189 13.1335 40.0541 11.8686 38.4519 10.9411C36.8497 10.0135 35.1 9.54973 33.2238 9.54973H32.5492C31.8535 6.74595 30.3778 4.44811 28.1011 2.6773C25.8243 0.906487 23.2524 0 20.3432 0C17.3708 0 14.7146 0.927568 12.4168 2.76162C10.1189 4.59568 8.64324 6.95676 7.98973 9.84486C5.67081 10.393 3.75243 11.5946 2.23459 13.4919C0.716757 15.3892 0 17.5184 0 19.9427ZM17.2022 40.7286C17.2022 41.0659 17.3076 41.3822 17.5184 41.6984C17.7292 42.0146 18.0665 42.2465 18.4881 42.373C18.7832 42.4362 18.9519 42.4784 19.0151 42.4784C19.2049 42.4784 19.4578 42.4151 19.8162 42.2676C20.2589 42.0778 20.5541 41.6984 20.7016 41.1713L21.2919 38.9578C21.4184 38.4941 21.3762 38.0513 21.1232 37.6297C20.8703 37.2081 20.5119 36.9341 20.0059 36.7865C19.5422 36.66 19.0995 36.7022 18.6778 36.9551C18.2562 37.2081 17.9611 37.5665 17.8135 38.0724L17.2443 40.1805C17.2232 40.5389 17.2022 40.7286 17.2022 40.7286ZM20.027 30.673C20.027 30.9681 20.1324 31.2843 20.3432 31.6005C20.5541 31.9168 20.8703 32.1486 21.2919 32.2962C21.7557 32.4438 22.2195 32.4227 22.6411 32.1908C23.0627 31.9589 23.3368 31.6005 23.4843 31.0946L24.1168 28.9022C24.2432 28.4384 24.18 27.9957 23.9481 27.5741C23.6951 27.1524 23.3157 26.8573 22.8308 26.7097C22.3459 26.5832 21.9032 26.6254 21.4605 26.8784C21.0178 27.1314 20.7438 27.4897 20.5962 27.9746L20.0903 30.1038C20.0481 30.4622 20.027 30.6519 20.027 30.673ZM25.9719 34.1514C25.9719 34.5097 26.0773 34.8681 26.3092 35.2265C26.5411 35.5849 26.8784 35.8168 27.3 35.9643C27.3422 35.9643 27.4265 35.9854 27.553 36.0065C27.6584 36.0276 27.7427 36.0486 27.8059 36.0486C28.08 36.0486 28.3541 36.0065 28.607 35.88C29.0076 35.7324 29.3027 35.3319 29.4714 34.6784L29.9984 32.5492C30.1459 32.0643 30.1038 31.6005 29.8719 31.1578C29.64 30.7151 29.2816 30.42 28.8178 30.2724C28.2908 30.1459 27.8059 30.2092 27.3843 30.4411C26.9627 30.6941 26.6886 31.0735 26.6043 31.5584L26.0351 33.7297C25.993 33.8562 25.9719 34.0038 25.9719 34.1514ZM28.8389 24.0535C28.8178 24.3908 28.9232 24.707 29.1551 25.0443C29.387 25.3816 29.7243 25.6346 30.1881 25.8454C30.3568 25.9297 30.5254 25.9719 30.7362 25.9719C30.9681 25.9719 31.2 25.9086 31.453 25.8032C31.8957 25.5924 32.1908 25.1919 32.3805 24.6016L32.9919 22.4303C33.0341 22.1562 33.0551 22.0087 33.0551 21.9665C33.0551 21.6081 32.9497 21.2708 32.7178 20.9335C32.4859 20.5962 32.1486 20.3643 31.6849 20.2378C31.6427 20.2378 31.5584 20.2168 31.453 20.1957C31.3265 20.1324 31.2422 20.1324 31.1789 20.1324C30.8205 20.1324 30.4832 20.2378 30.1459 20.4486C29.8086 20.6595 29.5768 20.9968 29.4503 21.4605L28.8811 23.5897C28.86 23.7584 28.8389 23.9059 28.8389 24.0535Z" fill="black"/>
</svg>
