<svg width="44" height="38" viewBox="0 0 44 38" fill="none" xmlns="http://www.w3.org/2000/svg">
<path d="M0 15.1063C0 13.2699 0.572659 11.6506 1.71798 10.2091C2.86329 8.7676 4.30481 7.83949 6.04253 7.44456C6.55595 5.27241 7.66177 3.49519 9.39949 2.09316C11.1372 0.691139 13.1119 0 15.3433 0C17.5154 0 19.4506 0.691139 21.1686 2.05367C22.8866 3.4162 23.9924 5.15392 24.4861 7.28658H24.9995C27.1716 7.28658 29.0279 8.05671 30.5681 9.57722C32.1084 11.0977 32.8785 12.9539 32.8785 15.1261V15.2051V15.3235C34.3595 16.9033 35.0901 18.7792 35.0901 20.9514C35.0901 22.4522 34.7149 23.8344 33.9646 25.0982C33.2142 26.3818 32.2071 27.3889 30.9433 28.1195C29.6795 28.8699 28.2972 29.2253 26.8162 29.2253C24.9205 29.2253 23.2223 28.6329 21.761 27.4679C20.2997 26.3028 19.3124 24.802 18.8385 23.0051H7.58279C5.46987 22.9063 3.67291 22.0967 2.21165 20.5762C0.75038 19.0557 0 17.2192 0 15.1063ZM2.68557 15.1063C2.68557 16.4886 3.15949 17.6932 4.12709 18.7003C5.09468 19.7073 6.24 20.2603 7.58279 20.3195H25.3352C26.678 20.2603 27.843 19.7271 28.7909 18.7003C29.7585 17.6734 30.2324 16.4886 30.2324 15.1063C30.2324 13.7043 29.719 12.4997 28.6724 11.4927C27.6258 10.4658 26.4213 9.97215 24.9995 9.97215H22.4522C22.2744 9.97215 22.1757 9.87342 22.1757 9.6957L22.0375 8.7676C21.8597 7.04962 21.1291 5.6081 19.8258 4.44304C18.5225 3.27798 17.0218 2.68557 15.3235 2.68557C13.5661 2.68557 12.0456 3.25823 10.762 4.42329C9.47848 5.58835 8.78734 7.02987 8.60962 8.74785L8.49114 9.67595C8.49114 9.85367 8.39241 9.95241 8.17519 9.95241H7.38532C6.06228 10.1104 4.93671 10.6633 4.0481 11.6506C3.13975 12.6182 2.68557 13.7833 2.68557 15.1063ZM14.9286 32.8982C14.4349 32.2466 14.4349 31.6147 14.9286 30.963L17.16 28.6922C17.4365 28.4552 17.7722 28.3367 18.1868 28.3367C18.562 28.3367 18.8582 28.4552 19.0952 28.6922C19.3322 28.9291 19.4506 29.2451 19.4506 29.6203C19.4506 30.0152 19.3322 30.3311 19.0952 30.5681L16.8441 32.8982C16.6071 33.1352 16.2714 33.2734 15.8765 33.2734C15.4815 33.2734 15.1656 33.1352 14.9286 32.8982ZM21.6228 22.9853C22.0375 24.0517 22.7286 24.9008 23.6765 25.5524C24.6243 26.2041 25.6709 26.5398 26.836 26.5398C28.3565 26.5398 29.6597 25.9868 30.7261 24.9008C31.7924 23.7949 32.3256 22.4719 32.3256 20.9119C32.3256 20.1418 32.2071 19.4506 31.9504 18.8385C31.2987 20.043 30.3706 21.0304 29.2056 21.7808C28.0208 22.5311 26.7372 22.9261 25.3352 22.9853H21.6228ZM25.4734 33.2339C25.4734 32.8587 25.6116 32.5625 25.8684 32.3058C26.1251 32.0689 26.4608 31.9306 26.8162 31.9306C27.1716 31.9306 27.5073 32.0689 27.8035 32.3453C28.0405 32.5823 28.1787 32.8785 28.1787 33.2339V36.4724C28.1787 36.8476 28.0405 37.1636 27.7838 37.44C27.5271 37.7165 27.1914 37.8547 26.836 37.8547C26.4805 37.8547 26.1448 37.7165 25.8881 37.44C25.6314 37.1636 25.4932 36.8476 25.4932 36.4724V33.2339H25.4734ZM34.1818 29.6203C34.1818 29.2648 34.3003 28.9686 34.557 28.7119C34.8137 28.4749 35.1296 28.3367 35.4851 28.3367C35.8603 28.3367 36.1762 28.4552 36.4132 28.6922L38.7433 30.963C39 31.2395 39.1382 31.5554 39.1382 31.9109C39.1382 32.2861 39 32.602 38.7433 32.8587C38.4866 33.1154 38.1509 33.2537 37.7757 33.2537C37.361 33.2537 37.0451 33.1352 36.7884 32.8785L34.557 30.5484C34.3003 30.2719 34.1818 29.956 34.1818 29.6203ZM34.1818 12.2233C34.1818 11.8481 34.3003 11.5322 34.557 11.2952L36.7884 8.96506C37.0648 8.7281 37.3808 8.58987 37.7757 8.58987C38.1509 8.58987 38.4668 8.70835 38.763 8.96506C39.0197 9.26127 39.158 9.59696 39.158 9.97215C39.158 10.3276 39.0197 10.6238 38.763 10.92L36.4329 13.1909C36.1959 13.4278 35.88 13.5661 35.5048 13.5661C35.1296 13.5661 34.8137 13.4476 34.5767 13.1909C34.3003 12.9144 34.1818 12.5985 34.1818 12.2233ZM37.7757 20.9119C37.7757 20.5367 37.8942 20.2208 38.1509 19.9641C38.3878 19.7073 38.7038 19.5691 39.079 19.5691H42.278C42.6532 19.5691 42.9889 19.7073 43.2653 19.9641C43.5418 20.2208 43.68 20.5367 43.68 20.9119C43.68 21.2871 43.5418 21.6228 43.2653 21.8795C42.9889 22.1362 42.6729 22.2744 42.278 22.2744H39.079C38.7038 22.2744 38.4076 22.1362 38.1509 21.8795C37.8942 21.6228 37.7757 21.3068 37.7757 20.9119Z" fill="black"/>
</svg>
