<svg width="30" height="22" viewBox="0 0 30 22" fill="none" xmlns="http://www.w3.org/2000/svg">
<path d="M0 14.0363C0 12.3959 0.513494 10.941 1.54048 9.65731C2.56747 8.37357 3.86547 7.54628 5.44874 7.18968C5.89091 5.23555 6.90364 3.63802 8.45838 2.38281C10.0131 1.1276 11.8104 0.5 13.8215 0.5C15.7899 0.5 17.5444 1.11334 19.0849 2.32576C20.6253 3.53817 21.6238 5.10718 22.0802 7.01852H22.5509C23.8347 7.01852 25.0186 7.33232 26.1026 7.94566C27.1866 8.559 28.0567 9.41482 28.6843 10.4989C29.3119 11.5829 29.64 12.7525 29.64 14.0363C29.64 15.2915 29.3405 16.4611 28.7414 17.5309C28.1423 18.6007 27.315 19.4565 26.2738 20.0983C25.2325 20.7402 24.0772 21.0825 22.8362 21.1253H6.84658C4.93525 21.0398 3.32345 20.3123 1.99692 18.943C0.670395 17.5879 0 15.9476 0 14.0363ZM2.4391 14.0363C2.4391 15.2772 2.86701 16.347 3.72283 17.2599C4.57865 18.1727 5.6199 18.6577 6.84658 18.729H22.8077C24.0344 18.672 25.0756 18.1727 25.9314 17.2599C26.8015 16.347 27.2294 15.2629 27.2294 14.0363C27.2294 12.7811 26.7587 11.7113 25.8316 10.7984C24.9044 9.88552 23.8061 9.42909 22.5224 9.42909H20.2402C20.0833 9.42909 19.9977 9.3435 19.9977 9.17234L19.8979 8.35931C19.741 6.81883 19.0706 5.52083 17.901 4.47958C16.7313 3.43833 15.3763 2.91057 13.8215 2.91057C12.2668 2.91057 10.8975 3.43833 9.75638 4.47958C8.60102 5.52083 7.94489 6.81883 7.80225 8.35931L7.68814 9.17234C7.68814 9.3435 7.5883 9.42909 7.40287 9.42909H6.64689C5.44874 9.57172 4.45028 10.0852 3.65151 10.9553C2.85274 11.8254 2.4391 12.8524 2.4391 14.0363Z" fill="black"/>
</svg>
