<svg width="46.8" height="45.9" viewBox="0 0 52 51" fill="none" xmlns="http://www.w3.org/2000/svg">
<g filter="url(#filter0_d_5_4)">
<path d="M4 19.9541C4 17.531 4.75855 15.3818 6.27566 13.4854C7.79276 11.589 9.71022 10.388 12.028 9.84011C12.6812 6.97447 14.1773 4.61453 16.474 2.76029C18.7707 0.906049 21.4046 0 24.3756 0C27.2834 0 29.854 0.90605 32.1297 2.69708C34.4053 4.4881 35.8803 6.8059 36.5546 9.62941H37.2288C39.1041 9.62941 40.853 10.093 42.4544 10.999C44.0558 11.9051 45.3411 13.1693 46.2682 14.7496C47.1954 16.33 47.68 18.0788 47.68 19.9541C47.68 21.8084 47.2375 23.5151 46.3525 25.0955C45.4676 26.6758 44.2454 27.94 42.7073 28.8882C41.1691 29.8364 39.4834 30.3421 37.6502 30.3843C37.3763 30.3843 37.2288 30.2578 37.2288 30.026V27.2236C37.2288 26.9708 37.3763 26.8443 37.6502 26.8443C39.4413 26.7601 40.9794 26.0436 42.2437 24.6951C43.508 23.3466 44.1401 21.7662 44.1401 19.9331C44.1401 18.0999 43.4447 16.5196 42.0751 15.1711C40.7055 13.8225 39.0831 13.1482 37.2078 13.1482H33.8153C33.5625 13.1482 33.4361 13.0218 33.4361 12.79L33.2675 11.5679C33.0357 9.29227 32.0454 7.37482 30.3386 5.85771C28.6108 4.31954 26.6302 3.56098 24.3334 3.56098C22.0367 3.56098 20.0139 4.31954 18.3282 5.85771C16.6215 7.39589 15.6733 9.29227 15.4626 11.5679L15.3151 12.6847C15.3151 12.9375 15.1676 13.085 14.8937 13.085L13.7769 13.1482C12.028 13.359 10.5531 14.1175 9.35201 15.4028C8.15097 16.6882 7.56098 18.2053 7.56098 19.9541C7.56098 21.7873 8.19311 23.3676 9.45737 24.7162C10.7216 26.0647 12.2598 26.7811 14.0508 26.8654C14.2826 26.8654 14.409 26.9918 14.409 27.2447V30.0471C14.409 30.2789 14.2826 30.4053 14.0508 30.4053C11.2273 30.2789 8.84631 29.2043 6.88672 27.1815C4.92712 25.1587 4 22.7566 4 19.9541ZM15.2729 34.0506C15.2729 33.9663 15.294 33.8188 15.3572 33.6292L18.7918 21.4713C18.9182 21.0709 19.15 20.7548 19.466 20.5441C19.7821 20.3334 20.1192 20.2281 20.4353 20.2281C20.5828 20.2281 20.7514 20.2491 20.941 20.2913C21.4467 20.3756 21.826 20.6495 22.0788 21.0709C22.3317 21.4923 22.3949 21.9559 22.2474 22.4827L18.8128 34.5563C18.56 35.4623 17.97 35.9048 17.085 35.9048C17.0008 35.9048 16.9375 35.8838 16.8533 35.8627C16.7268 35.8205 16.6636 35.7995 16.6425 35.7995C16.179 35.673 15.8419 35.4413 15.6101 35.1041C15.3783 34.7459 15.2729 34.4088 15.2729 34.0506ZM20.7935 39.9715L25.9348 21.4923C26.0191 21.092 26.2298 20.7759 26.5669 20.5652C26.9041 20.3545 27.2412 20.2491 27.5994 20.2491C27.7891 20.2491 27.9787 20.2702 28.1683 20.3124C28.6319 20.4388 28.969 20.7127 29.2008 21.1341C29.4326 21.5555 29.4747 21.998 29.3483 22.4827L24.2281 40.9829C24.1438 41.3411 23.9542 41.6361 23.617 41.889C23.2799 42.1418 22.9427 42.2682 22.5424 42.2682C22.3528 42.2682 22.1631 42.2261 22.0156 42.1629C21.5942 42.0575 21.236 41.7836 20.9199 41.3411C20.6882 40.9618 20.646 40.5194 20.7935 39.9715ZM29.4958 34.0927C29.4958 34.0084 29.5169 33.8609 29.5801 33.6081L33.0146 21.4502C33.1411 21.0498 33.3518 20.7338 33.6468 20.5231C33.9628 20.3124 34.2789 20.207 34.616 20.207C34.7846 20.207 34.9742 20.2281 35.1639 20.2702C35.6064 20.3966 35.9224 20.6074 36.1331 20.9234C36.3438 21.2395 36.4492 21.5766 36.4492 21.9137C36.4492 21.977 36.4281 22.0823 36.4071 22.2087C36.386 22.3352 36.3649 22.4194 36.3649 22.4616L32.9304 34.5352C32.8461 34.9356 32.6564 35.2727 32.3404 35.5045C32.0243 35.7363 31.6661 35.8627 31.2658 35.8627L30.7601 35.7573C30.3386 35.6309 30.0226 35.4202 29.7908 35.0831C29.6012 34.767 29.4958 34.4299 29.4958 34.0927Z" fill="black"/>
</g>
<defs>
<filter id="filter0_d_5_4" x="0" y="0" width="51.68" height="50.2682" filterUnits="userSpaceOnUse" color-interpolation-filters="sRGB">
<feFlood flood-opacity="0" result="BackgroundImageFix"/>
<feColorMatrix in="SourceAlpha" type="matrix" values="0 0 0 0 0 0 0 0 0 0 0 0 0 0 0 0 0 0 127 0" result="hardAlpha"/>
<feOffset dy="4"/>
<feGaussianBlur stdDeviation="2"/>
<feComposite in2="hardAlpha" operator="out"/>
<feColorMatrix type="matrix" values="0 0 0 0 0 0 0 0 0 0 0 0 0 0 0 0 0 0 0.25 0"/>
<feBlend mode="normal" in2="BackgroundImageFix" result="effect1_dropShadow_5_4"/>
<feBlend mode="normal" in="SourceGraphic" in2="effect1_dropShadow_5_4" result="shape"/>
</filter>
</defs>
</svg>
