<svg width="44" height="35" viewBox="0 0 44 35" fill="none" xmlns="http://www.w3.org/2000/svg">
<path d="M0 25.9837C0 27.4462 0.3575 28.795 1.0725 30.03C1.7875 31.265 2.7625 32.24 3.9975 32.955C5.2325 33.67 6.565 34.0275 8.01125 34.0275H25.61C27.0563 34.0275 28.405 33.67 29.64 32.955C30.875 32.24 31.8663 31.265 32.5813 30.03C33.2963 28.795 33.67 27.4462 33.67 25.9837C33.67 24.9112 33.4425 23.8225 32.9875 22.7337C34.2225 21.2387 34.84 19.435 34.84 17.3713C34.84 16.2175 34.6125 15.1125 34.1738 14.0563C33.735 13 33.1175 12.1063 32.3537 11.3425C31.59 10.5788 30.6962 9.96125 29.64 9.5225C28.5837 9.0675 27.4788 8.85625 26.325 8.85625C23.92 8.85625 21.8237 9.79875 20.02 11.6838C18.7687 10.9688 17.3063 10.6113 15.6325 10.6113C13.3413 10.6113 11.3262 11.3263 9.57125 12.74C7.81625 14.1538 6.67875 15.9738 6.19125 18.1838C4.37125 18.6063 2.8925 19.5325 1.73875 20.995C0.585 22.4575 0 24.115 0 25.9837ZM2.77875 25.9837C2.77875 24.6187 3.23375 23.4487 4.14375 22.4575C5.05375 21.4662 6.19125 20.8975 7.55625 20.735L8.36875 20.6863C8.56375 20.6863 8.6775 20.5888 8.6775 20.3938L8.79125 19.5163C9.01875 17.7613 9.7825 16.2825 11.0825 15.1125C12.3825 13.9263 13.91 13.3413 15.6487 13.3413C17.4362 13.3413 18.9962 13.9425 20.3125 15.1288C21.645 16.315 22.3763 17.7775 22.5388 19.5325L22.6525 20.475C22.685 20.6538 22.7987 20.7513 22.9937 20.7513H25.61C27.04 20.7513 28.275 21.2713 29.315 22.3113C30.355 23.3513 30.875 24.57 30.875 26C30.875 27.4788 30.355 28.73 29.3313 29.77C28.3075 30.81 27.0563 31.33 25.6263 31.33H8.01125C6.58125 31.33 5.3625 30.81 4.3225 29.7537C3.29875 28.6975 2.77875 27.4462 2.77875 25.9837ZM13.6662 6.045C13.6662 6.435 13.7962 6.77625 14.0562 7.06875L15.1287 8.10875C15.535 8.4175 15.8763 8.5475 16.1688 8.515C16.51 8.515 16.8025 8.36875 17.0625 8.0925C17.3225 7.81625 17.4525 7.475 17.4525 7.085C17.4525 6.695 17.3062 6.37 17.03 6.12625L16.0712 5.05375C15.7787 4.79375 15.4538 4.66375 15.08 4.66375C14.69 4.66375 14.3487 4.79375 14.0725 5.07C13.7962 5.33 13.6662 5.655 13.6662 6.045ZM22.3438 13.2438C23.465 12.155 24.7975 11.6188 26.325 11.6188C27.9338 11.6188 29.2988 12.1713 30.42 13.2925C31.5413 14.4138 32.11 15.7625 32.11 17.3713C32.11 18.3788 31.8338 19.3862 31.2812 20.3612C29.705 18.8012 27.82 18.0213 25.61 18.0213H25.09C24.6838 16.25 23.7737 14.6575 22.3438 13.2438ZM24.9925 4.66375C24.9925 5.08625 25.1225 5.41125 25.3663 5.67125C25.61 5.93125 25.935 6.045 26.325 6.045C26.7475 6.045 27.0725 5.915 27.3325 5.67125C27.5925 5.41125 27.7063 5.08625 27.7063 4.66375V1.3325C27.7063 0.9425 27.5763 0.63375 27.3163 0.37375C27.0563 0.11375 26.7313 0 26.325 0C25.935 0 25.6263 0.13 25.3663 0.37375C25.1063 0.6175 24.9925 0.9425 24.9925 1.3325V4.66375ZM33.9625 8.385C33.9625 8.8075 34.0763 9.1325 34.32 9.3925C34.6613 9.6525 35.0025 9.7825 35.3275 9.7825C35.62 9.7825 35.945 9.6525 36.2862 9.3925L38.61 7.06875C38.87 6.77625 39 6.435 39 6.02875C39 5.63875 38.87 5.31375 38.61 5.05375C38.35 4.79375 38.025 4.66375 37.6513 4.66375C37.2613 4.66375 36.9525 4.79375 36.7088 5.05375L34.32 7.3775C34.0763 7.68625 33.9625 8.01125 33.9625 8.385ZM35.2463 27.625C35.2463 28.015 35.3763 28.3563 35.6525 28.6488L36.7088 29.6725C36.9525 29.9325 37.2613 30.0625 37.6513 30.0625C38.0413 30.0625 38.3663 29.9325 38.6263 29.6562C38.8863 29.38 39.0163 29.055 39.0163 28.6488C39.0163 28.2913 38.8863 27.9662 38.6263 27.7062L37.57 26.65C37.31 26.39 37.0013 26.26 36.6438 26.26C36.2538 26.26 35.9288 26.39 35.6688 26.65C35.3925 26.91 35.2463 27.235 35.2463 27.625ZM37.635 17.3713C37.635 17.745 37.7813 18.0538 38.0575 18.3138C38.3175 18.5738 38.6588 18.7038 39.0488 18.7038H42.3637C42.7375 18.7038 43.0462 18.5737 43.3062 18.33C43.5662 18.0862 43.68 17.7613 43.68 17.3713C43.68 16.9813 43.55 16.6563 43.3062 16.3963C43.0625 16.1363 42.7375 15.99 42.3637 15.99H39.0488C38.6588 15.99 38.3338 16.12 38.0575 16.3963C37.765 16.6725 37.635 16.9975 37.635 17.3713Z" fill="black"/>
</svg>
